<?xml version="1.0" encoding="UTF-8"?>
<svg id="Layer_1" data-name="Layer 1" xmlns="http://www.w3.org/2000/svg" xmlns:xlink="http://www.w3.org/1999/xlink" viewBox="0 0 2000 1000">
  <defs>
    <style>
      .cls-1 {
        fill: url(#linear-gradient);
      }

      .cls-1, .cls-2, .cls-3 {
        stroke-width: 0px;
      }

      .cls-3 {
        fill: #0f0f0f;
      }
    </style>
    <linearGradient id="linear-gradient" x1="642.25" y1="480.95" x2="680.34" y2="519.05" gradientUnits="userSpaceOnUse">
      <stop offset="0" stop-color="#0089cf"/>
      <stop offset="1" stop-color="#0f0f0f"/>
    </linearGradient>
  </defs>
  <g>
    <path class="cls-3" d="M955.11,627.99v-72.42h173.88c2.69,0,5.01-.95,6.87-2.81,1.86-1.86,2.81-4.18,2.81-6.87s-.94-5-2.81-6.87c-1.87-1.86-4.18-2.81-6.87-2.81h-91.78c-22.52,0-42.04-8.1-58.02-24.08s-24.08-35.5-24.08-58.02,8.1-42.04,24.08-58.02c15.98-15.98,35.5-24.08,58.02-24.08h173.88v72.42h-173.88c-2.69,0-5.01.95-6.87,2.81s-2.81,4.17-2.81,6.87.94,5.01,2.81,6.87c1.86,1.86,4.17,2.81,6.87,2.81h91.78c22.52,0,42.04,8.1,58.02,24.08,15.98,15.98,24.08,35.5,24.08,58.02s-8.1,42.04-24.08,58.02c-15.98,15.98-35.5,24.08-58.02,24.08h-173.88Z"/>
    <path class="cls-2" d="M1210.59,372.51v71.42h-173.38c-2.83,0-5.26.99-7.22,2.96-1.96,1.96-2.96,4.39-2.96,7.22s.99,5.27,2.95,7.22c1.96,1.96,4.39,2.95,7.22,2.95h91.78c22.38,0,41.78,8.05,57.66,23.94,15.88,15.88,23.94,35.29,23.94,57.67s-8.05,41.78-23.94,57.66c-15.88,15.88-35.28,23.94-57.66,23.94h-173.38v-71.42h173.38c2.83,0,5.26-.99,7.22-2.96,1.96-1.96,2.96-4.39,2.96-7.22s-.99-5.26-2.96-7.23c-1.96-1.96-4.39-2.95-7.22-2.95h-91.78c-22.38,0-41.78-8.05-57.66-23.94-15.88-15.88-23.94-35.29-23.94-57.67s8.05-41.78,23.94-57.66c15.88-15.88,35.28-23.94,57.66-23.94h173.38M1211.59,371.51h-174.38c-22.76,0-42.22,8.08-58.37,24.23-16.15,16.15-24.23,35.61-24.23,58.37s8.08,42.22,24.23,58.37c16.15,16.15,35.61,24.23,58.37,24.23h91.78c2.57,0,4.74.89,6.52,2.66,1.77,1.78,2.66,3.95,2.66,6.52s-.89,4.74-2.66,6.52c-1.78,1.78-3.95,2.66-6.52,2.66h-174.38v73.42h174.38c22.76,0,42.22-8.08,58.37-24.23,16.15-16.15,24.23-35.61,24.23-58.37s-8.08-42.22-24.23-58.37c-16.15-16.15-35.61-24.23-58.37-24.23h-91.78c-2.57,0-4.74-.89-6.52-2.66-1.78-1.77-2.66-3.95-2.66-6.52s.89-4.74,2.66-6.52c1.77-1.77,3.95-2.66,6.52-2.66h174.38v-73.42h0Z"/>
  </g>
  <g>
    <polygon class="cls-3" points="1248.81 627.99 1248.81 372.01 1504.79 372.01 1504.79 444.43 1321.23 444.43 1321.23 463.79 1504.79 463.79 1504.79 536.21 1321.23 536.21 1321.23 555.57 1504.79 555.57 1504.79 627.99 1248.81 627.99"/>
    <path class="cls-2" d="M1504.29,372.51v71.42h-183.56v20.36h183.56v71.43h-183.56v20.36h183.56v71.42h-254.99v-254.99h254.99M1505.29,371.51h-256.99v256.99h256.99v-73.42h-183.56v-18.36h183.56v-73.43h-183.56v-18.36h183.56v-73.42h0Z"/>
  </g>
  <g>
    <polygon class="cls-3" points="715.64 627.99 788.06 555.57 844.97 555.57 844.97 480.44 697.41 627.99 588.69 627.99 844.68 372.01 917.4 372.01 917.4 627.99 715.64 627.99"/>
    <path class="cls-2" d="M916.9,372.51v254.99h-200.05l71.42-71.42h57.2v-76.84l-1.71,1.71-146.56,146.56h-107.31l254.99-254.99h72.01M917.9,371.51h-73.42l-256.99,256.99h110.14l146.85-146.85v73.43h-56.62l-73.42,73.42h203.46v-256.99h0Z"/>
  </g>
  <path class="cls-1" d="M494.71,628.49l256.99-256.99h9.79l-256.99,256.99h-9.79ZM535.03,628.49l256.99-256.99h-13.61l-256.99,256.99h13.61ZM570.89,628.49l256.99-256.99h-18.93l-256.99,256.99h18.93Z"/>
</svg>