<?xml version="1.0" encoding="UTF-8"?>
<svg id="Layer_1" data-name="Layer 1" xmlns="http://www.w3.org/2000/svg" viewBox="0 0 2000 1000">
  <defs>
    <style>
      .cls-1 {
        fill: #0f0f0f;
      }

      .cls-1, .cls-2, .cls-3 {
        stroke-width: 0px;
      }

      .cls-2 {
        fill: #fff;
      }

      .cls-3 {
        fill: #ea136a;
      }
    </style>
  </defs>
  <rect class="cls-1" width="2000" height="1000"/>
  <g>
    <path class="cls-2" d="M954.61,628.49v-73.42h174.38c2.57,0,4.74-.89,6.52-2.66s2.66-3.95,2.66-6.52-.89-4.74-2.66-6.52c-1.78-1.77-3.95-2.66-6.52-2.66h-91.78c-22.76,0-42.22-8.08-58.37-24.23-16.15-16.15-24.23-35.61-24.23-58.37s8.08-42.22,24.23-58.37c16.15-16.15,35.61-24.23,58.37-24.23h174.38v73.42h-174.38c-2.57,0-4.74.89-6.52,2.66-1.78,1.78-2.66,3.95-2.66,6.52s.89,4.74,2.66,6.52c1.77,1.78,3.95,2.66,6.52,2.66h91.78c22.76,0,42.22,8.08,58.37,24.23,16.15,16.15,24.23,35.61,24.23,58.37s-8.08,42.22-24.23,58.37c-16.15,16.15-35.61,24.23-58.37,24.23h-174.38Z"/>
    <path class="cls-2" d="M1505.29,371.51v73.42h-183.56v18.36h183.56v73.43h-183.56v18.36h183.56v73.42h-256.99v-256.99h256.99Z"/>
    <polygon class="cls-2" points="844.47 371.51 587.48 628.49 697.62 628.49 844.47 481.64 844.47 555.07 789.4 555.07 787.86 555.07 714.43 628.49 789.4 628.49 824.57 628.49 917.9 628.49 917.9 371.51 844.47 371.51"/>
    <polygon class="cls-3" points="504.5 628.49 761.48 371.51 751.69 371.51 494.71 628.49 504.5 628.49"/>
    <polygon class="cls-3" points="535.03 628.49 792.02 371.51 778.41 371.51 521.42 628.49 535.03 628.49"/>
    <polygon class="cls-3" points="570.89 628.49 827.88 371.51 808.95 371.51 551.96 628.49 570.89 628.49"/>
  </g>
</svg>